<svg width="24" height="24" viewBox="0 0 24 24" fill="none" xmlns="http://www.w3.org/2000/svg">
<path d="M22.5158 12.0605C22.5158 17.8505 17.8058 22.5605 12.0158 22.5605C7.73176 22.5605 3.91576 19.9985 2.29351 16.034C2.13676 15.65 2.32051 15.212 2.70376 15.0553C3.08626 14.8993 3.52501 15.083 3.68176 15.4655C5.07226 18.8645 8.34301 21.0605 12.015 21.0605C16.9778 21.0605 21.015 17.0233 21.015 12.0605C21.015 7.0978 16.9778 3.06055 12.015 3.06055C8.33626 3.06055 5.07826 5.2663 3.69601 8.6188L4.06351 8.28205C4.36876 8.0023 4.84351 8.0233 5.12326 8.32855C5.40301 8.6338 5.38276 9.10855 5.07676 9.3883L3.08326 11.216C2.94376 11.3435 2.76226 11.4133 2.57626 11.4133C2.53201 11.4133 2.48851 11.4095 2.44426 11.4013C2.21401 11.36 2.01601 11.2145 1.90951 11.0068L0.823511 8.8978C0.633761 8.52955 0.778511 8.0773 1.14676 7.88755C1.51576 7.6948 1.96726 7.8418 2.15701 8.2108L2.21026 8.3143C3.75901 4.2553 7.62826 1.56055 12.0158 1.56055C17.8058 1.56055 22.5158 6.27055 22.5158 12.0605ZM5.25001 11.9998C5.25001 8.27155 8.27176 5.2498 12 5.2498C15.7283 5.2498 18.75 8.27155 18.75 11.9998C18.75 15.728 15.7283 18.7498 12 18.7498C8.27176 18.7498 5.25001 15.728 5.25001 11.9998ZM11.25 11.9998C11.25 12.2353 11.361 12.458 11.55 12.5998L14.55 14.8498C14.685 14.951 14.8433 14.9998 14.9993 14.9998C15.2273 14.9998 15.4523 14.8963 15.6 14.6998C15.849 14.369 15.7815 13.8988 15.45 13.6505L12.75 11.6255V8.25055C12.75 7.8358 12.414 7.50055 12 7.50055C11.586 7.50055 11.25 7.8358 11.25 8.25055V11.9998Z" fill="#000"/>
</svg>
