<svg width="16" height="17" viewBox="0 0 16 17" fill="none" xmlns="http://www.w3.org/2000/svg">
<g clip-path="url(#clip0_324_8295)">
<path d="M13.12 5.51294H4.79998V3.37961C4.79998 3.26645 4.84493 3.15793 4.92494 3.07791C5.00496 2.9979 5.11348 2.95294 5.22664 2.95294H10.56C10.6731 2.95294 10.7817 2.9979 10.8617 3.07791C10.9417 3.15793 10.9866 3.26645 10.9866 3.37961V4.65961C10.9866 4.77277 11.0316 4.88129 11.1116 4.96131C11.1916 5.04132 11.3002 5.08628 11.4133 5.08628C11.5265 5.08628 11.635 5.04132 11.715 4.96131C11.795 4.88129 11.84 4.77277 11.84 4.65961V3.37961C11.84 3.04013 11.7051 2.71456 11.4651 2.47451C11.225 2.23447 10.8995 2.09961 10.56 2.09961H5.22664C4.88717 2.09961 4.56159 2.23447 4.32155 2.47451C4.0815 2.71456 3.94664 3.04013 3.94664 3.37961V5.51294H2.87998C2.5405 5.51294 2.21493 5.6478 1.97488 5.88785C1.73483 6.12789 1.59998 6.45347 1.59998 6.79294V10.6329C1.59998 10.9724 1.73483 11.298 1.97488 11.538C2.21493 11.7781 2.5405 11.9129 2.87998 11.9129H3.94664V13.4063C3.94664 13.7458 4.0815 14.0713 4.32155 14.3114C4.56159 14.5514 4.88717 14.6863 5.22664 14.6863H10.7733C11.1128 14.6863 11.4384 14.5514 11.6784 14.3114C11.9185 14.0713 12.0533 13.7458 12.0533 13.4063V11.9129H13.12C13.4595 11.9129 13.785 11.7781 14.0251 11.538C14.2651 11.298 14.4 10.9724 14.4 10.6329V6.79294C14.4 6.45347 14.2651 6.12789 14.0251 5.88785C13.785 5.6478 13.4595 5.51294 13.12 5.51294ZM12.2666 8.49961C12.0979 8.49961 11.9329 8.44956 11.7926 8.3558C11.6522 8.26203 11.5429 8.12876 11.4783 7.97283C11.4137 7.81691 11.3968 7.64533 11.4297 7.4798C11.4626 7.31427 11.5439 7.16222 11.6632 7.04288C11.7826 6.92354 11.9346 6.84227 12.1002 6.80934C12.2657 6.77641 12.4373 6.79331 12.5932 6.8579C12.7491 6.92249 12.8824 7.03186 12.9762 7.17219C13.0699 7.31252 13.12 7.4775 13.12 7.64628C13.12 7.8726 13.0301 8.08964 12.87 8.24968C12.71 8.40971 12.493 8.49961 12.2666 8.49961ZM11.2 13.4063C11.2 13.5194 11.155 13.628 11.075 13.708C10.995 13.788 10.8865 13.8329 10.7733 13.8329H5.22664C5.11348 13.8329 5.00496 13.788 4.92494 13.708C4.84493 13.628 4.79998 13.5194 4.79998 13.4063V11.0596C4.79998 10.9465 4.84493 10.8379 4.92494 10.7579C5.00496 10.6779 5.11348 10.6329 5.22664 10.6329H10.7733C10.8865 10.6329 10.995 10.6779 11.075 10.7579C11.155 10.8379 11.2 10.9465 11.2 11.0596V13.4063Z" fill="black"/>
<path d="M11.9117 8.7304C11.8716 8.66039 11.8137 8.60222 11.7439 8.56176C11.6741 8.52131 11.5948 8.5 11.5141 8.5C11.4335 8.5 11.3542 8.52131 11.2844 8.56176C11.2146 8.60222 11.1567 8.66039 11.1166 8.7304L7.06061 15.8142C7.0207 15.8838 6.9998 15.9628 7 16.043C7.0002 16.1233 7.0215 16.2021 7.06176 16.2716C7.10202 16.3411 7.15982 16.3987 7.22938 16.4388C7.29894 16.4789 7.37782 16.5 7.4581 16.5H15.5702C15.6504 16.5 15.7293 16.4789 15.7989 16.4388C15.8684 16.3987 15.9262 16.341 15.9665 16.2716C16.0067 16.2021 16.028 16.1233 16.0283 16.043C16.0285 15.9628 16.0076 15.8838 15.9677 15.8142L11.9117 8.7304Z" fill="#FFB300"/>
<path d="M11.5158 14.0577C11.5692 14.0592 11.6224 14.0497 11.672 14.0299C11.7216 14.0101 11.7666 13.9803 11.8042 13.9424C11.8419 13.9045 11.8713 13.8593 11.8909 13.8096C11.9104 13.7599 11.9195 13.7067 11.9177 13.6533L12.1114 11.1061C12.1208 11.0214 12.1123 10.9358 12.0865 10.8546C12.0606 10.7735 12.0179 10.6987 11.9612 10.6352C11.9045 10.5716 11.835 10.5208 11.7573 10.4859C11.6797 10.451 11.5955 10.4328 11.5103 10.4326C11.4252 10.4324 11.3409 10.4502 11.2631 10.4847C11.1852 10.5192 11.1155 10.5698 11.0585 10.6331C11.0015 10.6963 10.9585 10.7709 10.9322 10.8519C10.906 10.9329 10.8971 11.0186 10.9061 11.1032L11.1072 13.6537C11.1057 13.7076 11.1154 13.7611 11.1355 13.8111C11.1556 13.8611 11.1857 13.9064 11.224 13.9443C11.2623 13.9821 11.308 14.0117 11.3582 14.0312C11.4084 14.0508 11.462 14.0598 11.5158 14.0577Z" fill="#212121"/>
<path d="M11.9736 14.4864C11.8417 14.3838 11.6794 14.3281 11.5123 14.3281C11.3452 14.3282 11.1829 14.3839 11.051 14.4865C10.8376 14.6986 10.8377 15.2249 11.051 15.4371C11.1829 15.5396 11.3453 15.5953 11.5124 15.5953C11.6795 15.5953 11.8418 15.5396 11.9738 15.4371C12.1872 15.2245 12.1873 14.6989 11.9736 14.4864Z" fill="#212121"/>
</g>
<defs>
<clipPath id="clip0_324_8295">
<rect width="16" height="16" fill="white" transform="translate(0 0.5)"/>
</clipPath>
</defs>
</svg>
