<svg width="14" height="13" viewBox="0 0 14 13" fill="none" xmlns="http://www.w3.org/2000/svg">
<path d="M12.12 3.51294H3.79999V1.37961C3.79999 1.26645 3.84494 1.15793 3.92496 1.07791C4.00498 0.997895 4.1135 0.952943 4.22666 0.952943H9.55999C9.67315 0.952943 9.78168 0.997895 9.86169 1.07791C9.94171 1.15793 9.98666 1.26645 9.98666 1.37961V2.65961C9.98666 2.77277 10.0316 2.88129 10.1116 2.96131C10.1916 3.04132 10.3002 3.08628 10.4133 3.08628C10.5265 3.08628 10.635 3.04132 10.715 2.96131C10.795 2.88129 10.84 2.77277 10.84 2.65961V1.37961C10.84 1.04013 10.7051 0.714559 10.4651 0.474513C10.225 0.234466 9.89947 0.0996094 9.55999 0.0996094H4.22666C3.88718 0.0996094 3.56161 0.234466 3.32156 0.474513C3.08152 0.714559 2.94666 1.04013 2.94666 1.37961V3.51294H1.87999C1.54051 3.51294 1.21494 3.6478 0.974894 3.88785C0.734848 4.12789 0.599991 4.45347 0.599991 4.79294V8.63295C0.599991 8.97242 0.734848 9.298 0.974894 9.53804C1.21494 9.77809 1.54051 9.91295 1.87999 9.91295H2.94666V11.4063C2.94666 11.7458 3.08152 12.0713 3.32156 12.3114C3.56161 12.5514 3.88718 12.6863 4.22666 12.6863H9.77333C10.1128 12.6863 10.4384 12.5514 10.6784 12.3114C10.9185 12.0713 11.0533 11.7458 11.0533 11.4063V9.91295H12.12C12.4595 9.91295 12.785 9.77809 13.0251 9.53804C13.2651 9.298 13.4 8.97242 13.4 8.63295V4.79294C13.4 4.45347 13.2651 4.12789 13.0251 3.88785C12.785 3.6478 12.4595 3.51294 12.12 3.51294ZM11.2667 6.49961C11.0979 6.49961 10.9329 6.44956 10.7926 6.3558C10.6522 6.26203 10.5429 6.12876 10.4783 5.97283C10.4137 5.81691 10.3968 5.64533 10.4297 5.4798C10.4627 5.31427 10.5439 5.16222 10.6633 5.04288C10.7826 4.92354 10.9347 4.84227 11.1002 4.80934C11.2657 4.77641 11.4373 4.79331 11.5932 4.8579C11.7491 4.92249 11.8824 5.03186 11.9762 5.17219C12.0699 5.31252 12.12 5.4775 12.12 5.64628C12.12 5.8726 12.0301 6.08964 11.8701 6.24968C11.71 6.40971 11.493 6.49961 11.2667 6.49961ZM10.2 11.4063C10.2 11.5194 10.155 11.628 10.075 11.708C9.99501 11.788 9.88649 11.8329 9.77333 11.8329H4.22666C4.1135 11.8329 4.00498 11.788 3.92496 11.708C3.84494 11.628 3.79999 11.5194 3.79999 11.4063V9.05961C3.79999 8.94645 3.84494 8.83793 3.92496 8.75791C4.00498 8.6779 4.1135 8.63295 4.22666 8.63295H9.77333C9.88649 8.63295 9.99501 8.6779 10.075 8.75791C10.155 8.83793 10.2 8.94645 10.2 9.05961V11.4063Z" fill="black"/>
</svg>
