<svg width="24" height="24" viewBox="0 0 24 24" fill="none" xmlns="http://www.w3.org/2000/svg">
<path fill-rule="evenodd" clip-rule="evenodd" d="M3.36215 18.8935C2.88024 19.3755 2.88032 20.1567 3.3623 20.6386C3.84428 21.1205 4.62565 21.1205 5.10754 20.6385L12.0002 13.7452L18.8933 20.6379C19.3752 21.1197 20.1567 21.1197 20.6386 20.6379C21.1205 20.156 21.1205 19.3746 20.6386 18.8928L13.7453 12L20.6381 5.10647C21.1199 4.62453 21.1199 3.84322 20.6378 3.36136C20.1559 2.87949 19.3745 2.87956 18.8926 3.3615L11.9999 10.2549L5.1067 3.3621C4.62477 2.8802 3.84339 2.8802 3.36146 3.3621C2.87951 3.84401 2.87951 4.62531 3.36146 5.10722L10.2549 12.0001L3.36215 18.8935Z" fill="#929292"/>
</svg>
