<svg width="391" height="352" viewBox="0 0 391 352" fill="none" xmlns="http://www.w3.org/2000/svg">
<path d="M375.775 161.157C373.412 165.542 371.035 169.535 368.875 172.972C363.859 180.946 359.966 185.949 359.966 185.949C345.928 199.534 341.303 230.341 328.212 261.742C318.697 284.563 304.709 307.688 279.372 324.747C276.339 326.782 273.129 328.741 269.756 330.598C258.965 336.537 246.391 341.478 231.632 345.042L231.341 345.104C227.26 346.091 223.014 346.975 218.603 347.72C211.793 348.908 204.578 349.818 196.92 350.437C195.644 350.538 194.342 350.639 193.041 350.715C185.017 351.245 176.526 351.473 167.528 351.347C138.768 350.942 114.139 346.254 93.3273 338.408C92.1396 337.965 90.9646 337.497 89.8013 337.03C75.4853 331.268 63.025 323.989 52.3484 315.574C-15.9636 261.844 -12.3241 162.256 33.9486 121.062C49.9348 106.833 75.1947 96.3326 103.614 89.7748H103.625C122.594 85.4026 142.95 82.7865 162.916 81.9901C163.017 81.9784 163.118 81.9784 163.207 81.9784H163.219C197.375 80.6136 230.293 84.5807 252.874 94.1725C308.486 117.777 304.367 46.7726 365.022 74.1183C404.535 91.9349 390.42 134.002 375.775 161.157Z" fill="#E1F1FF"/>
<path d="M328.212 261.742C318.697 284.563 304.709 307.688 279.372 324.747C276.339 326.782 273.129 328.741 269.756 330.598C258.965 336.537 246.391 341.478 231.632 345.042L231.341 345.104C227.26 346.091 223.014 346.975 218.603 347.72C211.793 348.908 204.578 349.818 196.92 350.437C195.644 350.538 194.342 350.639 193.041 350.715C185.017 351.245 176.526 351.473 167.528 351.347C138.768 350.942 114.139 346.254 93.3273 338.408C92.1396 337.965 90.9646 337.497 89.8013 337.03C75.4853 331.268 63.025 323.989 52.3484 315.574C52.9168 299.867 61.0674 284.399 83.2689 272.307C145.92 238.162 277.818 202.617 328.212 261.742Z" fill="#C8E1F7"/>
<path d="M223.337 346.708C221.596 347.054 219.827 347.384 218.03 347.686C211.181 348.885 203.923 349.8 196.228 350.431C194.942 350.532 193.628 350.632 192.325 350.705C184.256 351.245 175.711 351.474 166.665 351.346C137.732 350.933 112.965 346.204 92.0295 338.289C90.8704 337.85 89.7219 337.393 88.582 336.944L88.4812 336.898C88.4812 336.898 129.461 334.575 125.813 332.03C122.166 329.487 114.269 323.384 114.269 323.384C114.269 323.384 134.021 319.476 146.787 323.384C159.552 327.3 197.055 324.186 209.913 321.955C337.644 299.801 223.373 335.471 223.337 346.708Z" fill="#ADCFEC"/>
<path d="M267.608 150.303C265.94 150.303 264.424 149.62 263.324 148.533C262.212 147.435 261.531 145.904 261.531 144.225C261.531 143.669 261.606 143.138 261.758 142.633C262.439 140.055 264.815 138.147 267.608 138.147C270.956 138.147 273.687 140.876 273.687 144.225C273.687 147.573 270.956 150.303 267.608 150.303ZM267.608 134.355C263.122 134.355 259.331 137.351 258.131 141.457C257.979 141.988 257.866 142.544 257.802 143.099C257.765 143.466 257.74 143.846 257.74 144.225C257.74 146.676 258.637 148.925 260.115 150.656C261.935 152.754 264.613 154.093 267.608 154.093C273.055 154.093 277.478 149.671 277.478 144.225C277.478 138.778 273.055 134.355 267.608 134.355Z" fill="#585962"/>
<path d="M97.6499 327.88C95.9691 331.797 94.5407 335.285 93.3275 338.407C92.1398 337.965 90.9648 337.496 89.8015 337.03C91.0157 333.87 92.4558 330.333 94.1621 326.39C102.275 307.548 101.693 271.181 101.087 256.738C100.922 252.985 100.758 250.71 100.758 250.61L104.536 250.332C104.575 250.875 104.827 254.489 105.017 259.986C105.585 276.375 105.572 309.481 97.6499 327.88Z" fill="#585962"/>
<path d="M196.92 350.437C195.644 350.538 194.342 350.639 193.041 350.715C191.423 345.496 188.795 338.092 184.397 327.881C178.673 314.601 177.081 293.649 176.841 276.856C176.752 269.375 176.917 262.729 177.106 257.939C177.169 256.347 177.233 254.957 177.296 253.819C177.371 252.519 177.435 251.532 177.46 250.938C177.486 250.635 177.498 250.433 177.511 250.332L180.998 250.584L181.289 250.61C181.289 250.685 181.188 251.975 181.075 254.186C181.049 254.83 181.01 255.551 180.973 256.347C180.783 261.009 180.568 268.15 180.67 276.299C180.885 292.878 182.389 313.64 187.884 326.391C192.586 337.295 195.29 345.066 196.92 350.437Z" fill="#585962"/>
<path d="M118.704 325.571L115.438 323.646C115.47 323.537 115.641 322.734 115.805 321.958C116.584 318.269 118.41 309.628 124.789 292.896C133.016 271.314 130.121 224.427 130.09 223.956L133.874 223.715C133.999 225.67 136.852 271.894 128.331 294.246C122.058 310.702 120.276 319.139 119.514 322.74C119.183 324.3 119.034 325.012 118.704 325.571Z" fill="#585962"/>
<path d="M207.015 325.571C206.685 325.012 206.535 324.299 206.205 322.739C205.443 319.137 203.659 310.7 197.387 294.246C188.866 271.894 191.72 225.67 191.845 223.715L195.628 223.956C195.598 224.427 192.702 271.314 200.929 292.896C207.308 309.626 209.134 318.267 209.913 321.955C210.078 322.733 210.247 323.537 210.33 323.744L207.015 325.571Z" fill="#585962"/>
<path d="M238.697 242.472C235.512 249.801 227.79 257.358 217.088 263.588C210.909 267.189 203.732 270.348 195.846 272.749C175.818 278.915 151.253 280.28 127.079 271.952C76.9508 254.69 63.0515 191.509 63.4672 174.476C63.6199 168.549 67.7005 163.634 72.9699 159.755C82.8013 152.489 96.7515 148.824 96.7515 148.824C96.7515 148.824 114.039 156.949 136.569 168.587C180.759 191.397 245.115 227.688 238.697 242.472Z" fill="#F3661B"/>
<path d="M191.941 248.79C176.36 265.217 133.929 267.315 117.071 248.79C100.226 230.252 98.4321 215.936 78.2147 178.026C74.361 170.786 72.8573 164.759 72.9697 159.755C82.8011 152.489 96.7513 148.824 96.7513 148.824C96.7513 148.824 114.039 156.949 136.569 168.587C165.67 198.296 201.507 238.706 191.941 248.79Z" fill="#E93031"/>
<path d="M243.751 205.826C243.751 208.038 195.101 188.768 186.886 183.713C178.673 178.658 168.881 144.857 168.881 144.857L195.417 142.962C195.417 142.962 193.685 152.691 202.568 165.315C205.665 169.712 210.063 174.476 216.266 179.29C222.421 184.067 227.222 187.997 230.963 191.232C241.83 200.607 243.751 204.183 243.751 205.826Z" fill="#F0BBB4"/>
<path d="M243.751 205.826C243.751 208.038 195.101 188.768 186.886 183.713C178.673 178.658 168.881 144.857 168.881 144.857L195.417 142.962C195.417 142.962 193.685 152.691 202.568 165.315C199.435 169.358 198.006 174.224 206.321 180.971C213.398 186.721 223.153 189.702 230.963 191.232C241.83 200.607 243.751 204.183 243.751 205.826Z" fill="#E8A8A4"/>
<path d="M279.373 324.747C276.34 326.782 273.13 328.74 269.757 330.598C269.036 327.591 266.711 318.063 263.893 310.709C262.515 307.12 259.66 301.307 256.551 294.42C254.226 289.29 251.763 283.553 249.653 277.715C247.63 272.117 245.937 266.393 245.015 261.009C243.941 254.679 241.312 249.069 237.837 244.255C237.32 243.546 236.8 242.85 236.245 242.181C229.661 234.031 220.727 228.42 213.423 225.728C209.38 224.239 197.122 219.487 182.655 213.838C180.026 212.814 177.334 211.766 174.592 210.691C168.78 208.418 162.802 206.079 156.991 203.817L156.977 203.805C154.994 203.021 153.034 202.263 151.115 201.505V201.492C147.5 200.076 144 198.7 140.714 197.411H140.701C136.519 195.768 132.678 194.251 129.354 192.95C121.873 190.019 117.071 188.136 117.071 188.136L129.177 186.745L151.468 184.18L161.312 183.043L163.32 182.815L179.306 180.971C179.306 180.971 181.29 181.489 184.651 182.424C184.955 182.513 185.271 182.601 185.598 182.689C186.091 182.829 186.609 182.98 187.14 183.131C199.979 186.821 225.833 194.87 243.422 204.488C251.749 209.037 258.232 213.939 260.595 218.88C263.223 224.376 265.549 232.894 267.608 242.813C272.423 266.076 275.746 297.061 277.982 314.802C278.501 318.922 278.969 322.322 279.373 324.747Z" fill="#5795CC"/>
<path d="M267.608 242.813C259.432 238.542 251.725 232.452 251.333 238.049C250.814 245.631 251.8 272.483 249.652 277.715C247.63 272.117 245.937 266.393 245.015 261.008C241.855 242.472 225.429 230.151 213.423 225.728C206.549 223.201 176.007 211.26 151.115 201.504V201.492C150.874 195.376 154.424 188.59 161.312 183.043L179.306 180.971C179.306 180.971 251.345 199.534 260.595 218.88C263.223 224.376 265.549 232.894 267.608 242.813Z" fill="#367FC2"/>
<path d="M231.632 345.042C231.543 344.093 231.481 343.107 231.417 342.085C230.988 335.008 231.013 326.415 231.241 316.698C231.431 308.661 231.747 299.866 232.063 290.503C232.732 270.991 235.55 257.799 236.144 247.034C236.232 245.365 236.27 243.749 236.245 242.181C236.169 238.189 235.639 234.486 234.375 230.822C233.224 227.46 231.468 224.149 228.903 220.674C224.088 214.192 215.054 210.123 204.767 207.33C191.954 203.856 177.183 202.352 166.239 200.646C165.255 200.507 164.306 200.355 163.384 200.191C159.556 199.534 156.333 198.826 154.033 197.929C153.262 197.638 152.429 197.398 151.53 197.234C148.499 196.677 144.746 196.816 140.701 197.411C137.05 197.929 133.144 198.826 129.292 199.9C118.993 202.756 108.984 206.876 104.751 208.683C103.4 209.275 102.642 209.618 102.642 209.618C102.642 209.618 103.577 215.657 107.935 223.189C111.929 230.101 118.841 238.277 130.606 244.165C131.818 244.785 133.094 245.365 134.421 245.934C136.317 246.731 138.313 247.463 140.436 248.134C143.886 249.219 147.664 250.13 151.771 250.798C152.921 251.001 154.096 251.165 155.296 251.318C157.205 251.557 159.012 251.785 160.742 251.987H160.755C167.364 252.784 172.734 253.376 177.133 253.806L177.296 253.82C178.649 253.959 179.912 254.072 181.076 254.185C182.326 254.299 183.488 254.401 184.55 254.489C187.442 254.729 189.693 254.894 191.474 255.007C193.093 255.095 194.33 255.172 195.315 255.234C198.791 255.45 199.17 255.626 202.468 257.218C206.044 258.925 207.118 263.436 207.244 268.553C207.295 270.777 207.182 273.127 207.005 275.415C206.751 278.89 206.373 282.213 206.322 284.804C206.259 287.862 206.221 293.245 206.601 299.689C206.853 304.188 207.295 309.192 208.078 314.296C208.571 317.507 209.19 320.767 209.975 323.938C210.947 327.918 212.186 331.786 213.739 335.349C215.382 339.126 216.76 342.552 217.872 345.634C218.124 346.343 218.377 347.05 218.605 347.72L231.632 345.042Z" fill="#5795CC"/>
<path d="M179.936 148.332C183.728 157.177 190.361 176.763 186.886 183.713C186.837 183.827 186.76 183.94 186.672 184.067C184.726 186.948 175.185 193.342 163.384 200.191C154.095 205.574 143.405 211.221 133.902 215.671C126.966 218.904 120.648 221.483 115.996 222.823C113.634 223.505 111.701 223.872 110.323 223.833C109.515 223.808 108.719 223.593 107.935 223.189C102.767 220.574 98.0282 210.034 94.6422 195.288C90.3453 176.612 88.235 151.187 90.2191 126.533C94.0102 79.4629 125.601 77.7195 125.601 77.7195C136.481 70.8711 152.138 75.3441 162.802 81.7248C167.616 84.5934 171.407 87.8542 173.29 90.6209C184.145 106.632 195.417 142.961 195.417 142.961L184.562 146.726L179.936 148.332Z" fill="#7797B3"/>
<path d="M186.672 184.067C183.184 189.222 155.46 205.599 133.902 215.671C133.258 215.582 132.791 215.455 132.513 215.304C126.801 212.144 130.972 193.296 128.444 180.975C125.917 168.655 110.12 140.117 115.176 141.141C120.231 142.165 132.867 152.754 133.246 151.491C133.613 150.227 136.341 146.435 136.341 146.435C136.341 146.435 144.555 146.751 148.661 149.064C151.493 150.643 168.704 169.623 186.672 184.067Z" fill="#6285A3"/>
<path d="M195.417 142.962L184.562 146.726C182.136 144.237 180.102 141.204 178.737 137.514C178.737 137.514 170.46 99.6815 165.885 88.9402C164.458 85.6051 163.484 83.305 162.802 81.7249C167.616 84.5934 171.407 87.8542 173.29 90.621C184.145 106.632 195.417 142.962 195.417 142.962Z" fill="#6285A3"/>
<path d="M165.886 24.6472C165.886 24.6472 164.142 57.0333 157.671 61.4564C152.327 65.1086 142.572 66.1702 137.909 63.5922L137.454 73.6251C137.454 73.6251 141.877 77.2518 140.284 79.3112C138.717 81.359 131.287 82.306 125.601 77.7195L126.018 67.7746L126.384 58.9294C126.384 58.9294 126.284 58.8149 126.081 58.588C124.261 56.4777 114.734 45.0927 116.604 39.659C118.651 33.6568 130.972 22.9155 130.972 22.9155L150.558 21.1849L165.886 24.6472Z" fill="#F5CEC5"/>
<path d="M126.018 67.7746L126.383 58.9295C126.383 58.9295 126.284 58.8149 126.08 58.588C127.256 53.5583 128.912 48.3525 128.912 48.3525C128.912 48.3525 129.594 66.9273 126.018 67.7746Z" fill="#E8A8A4"/>
<path d="M129.55 15.3345C129.55 15.3345 132.235 0.486038 152.295 0.0120163C172.355 -0.460938 179.621 13.1223 175.83 21.9675C172.039 30.8138 156.245 31.6028 149.294 29.8658C142.343 28.1277 131.919 26.8647 134.446 35.2359C136.974 43.6081 134.288 46.4512 131.761 45.5031C129.234 44.5551 129.075 40.449 128.444 37.132C127.812 33.8149 123.232 34.9199 122.284 41.396C121.337 47.8722 128.286 48.3462 128.918 48.3462C129.55 48.3462 128.126 64.1087 126.152 64.5987C124.179 65.0896 113.438 60.6665 111.069 46.1352C108.701 31.6028 111.227 15.1765 129.55 15.3345Z" fill="#949494"/>
<path d="M263.122 148.824C260.393 152.463 248.805 151.491 248.805 151.491C224.594 163.735 200.156 164.354 180.266 161.157C154.475 157.012 136.342 146.435 136.342 146.435L142.596 132.131L148.132 119.482C170.422 135.985 189.541 142.796 204.351 145.349L204.401 145.362C223.014 148.571 234.83 145.096 237.647 145.804C242.702 147.067 248.173 145.805 254.491 142.43C256.564 141.33 258.497 141.242 260.064 141.76C263.287 142.81 264.968 146.373 263.122 148.824Z" fill="#F5CEC5"/>
<path d="M228.903 220.674C219.299 207.469 146.072 217.363 133.902 215.671C143.405 211.221 154.095 205.573 163.384 200.191C182.691 203.514 217.569 205.384 228.903 220.674Z" fill="#498AC5"/>
<path d="M140.436 248.133C122.505 242.472 112.939 231.844 107.935 223.189C108.719 223.593 109.515 223.808 110.323 223.833C111.701 223.871 113.634 223.505 115.997 222.823C124.931 233.676 134.307 244.089 140.436 248.133Z" fill="#498AC5"/>
<path d="M115.997 222.823C113.634 223.505 111.701 223.872 110.323 223.833C109.515 223.808 108.719 223.593 107.935 223.189C102.767 220.574 98.0283 210.034 94.6423 195.288C97.0177 198.51 100.581 203.273 104.751 208.683C108.201 213.13 112.055 218.02 115.997 222.823Z" fill="#6285A3"/>
<path d="M208.647 274.227C208.179 274.733 207.635 275.137 207.004 275.414C207.573 267.858 207.598 259.67 202.468 257.218C196.453 254.325 200.13 256.094 177.133 253.806C172.734 253.376 167.364 252.783 160.755 251.987C161.564 251.962 190.577 251.241 206.322 245.631C222.269 239.945 217.454 264.585 208.647 274.227Z" fill="#498AC5"/>
<path d="M231.632 345.042C231.543 344.093 231.48 343.107 231.417 342.085C230.987 335.008 231.013 326.415 231.241 316.698C227.007 322.801 220.764 333.314 217.872 345.634C218.124 346.343 218.376 347.05 218.604 347.72L231.632 345.042Z" fill="#498AC5"/>
<path d="M279.373 324.747C276.34 326.782 273.13 328.74 269.757 330.598C269.036 327.591 266.711 318.063 263.893 310.709C262.515 307.12 259.66 301.307 256.551 294.42C262.162 301.091 268.859 308.219 275.026 312.604C275.91 313.235 276.895 313.968 277.982 314.802C278.501 318.922 278.969 322.322 279.373 324.747Z" fill="#367FC2"/>
<path d="M180.266 161.157C154.475 157.013 136.342 146.436 136.342 146.436L142.596 132.131C143.304 135.594 146.805 143.201 160.755 151.175C167.769 155.181 174.656 158.567 180.266 161.157Z" fill="#E8A8A4"/>
<path d="M260.064 141.76C258.915 142.986 255.604 143.934 254.075 144.124C250.486 144.54 248.805 151.491 233.01 150.442C223.646 149.81 212.186 147.308 204.401 145.362C223.014 148.571 234.83 145.096 237.647 145.804C242.702 147.067 248.173 145.804 254.491 142.43C256.564 141.33 258.497 141.242 260.064 141.76Z" fill="#E8A8A4"/>
<path d="M137.896 63.6548V63.5922C137.896 63.5922 134.863 62.7205 134.232 62.5052C133.6 62.3037 136.569 70.1882 137.567 71.0344L137.896 63.6548Z" fill="#E8A8A4"/>
<path d="M368.875 172.972H265.119C262.326 172.972 260.064 170.71 260.064 167.917V166.212C260.064 163.419 262.326 161.157 265.119 161.157H375.775L368.875 172.972Z" fill="#7797B3"/>
<path d="M292.901 132.131H269.828C268.602 132.131 267.608 133.126 267.608 134.352V161.157H295.121V134.352C295.121 133.126 294.127 132.131 292.901 132.131Z" fill="#585962"/>
<path d="M276.803 129.522H274.275C274.275 127.09 275.975 125.896 277.34 124.936C278.611 124.042 279.33 123.485 279.33 122.417C279.33 121.348 278.611 120.792 277.34 119.899C275.975 118.938 274.275 117.744 274.275 115.311C274.275 112.88 275.975 111.686 277.341 110.727C278.293 110.058 278.937 109.577 279.199 108.928C279.384 108.467 279.883 108.21 280.38 108.21C281.28 108.21 281.866 109.137 281.511 109.963C280.943 111.284 279.781 112.101 278.792 112.795C277.522 113.688 276.803 114.244 276.803 115.311C276.803 116.379 277.523 116.937 278.793 117.83C280.158 118.791 281.858 119.984 281.858 122.417C281.858 124.849 280.158 126.043 278.793 127.004C277.523 127.897 276.803 128.454 276.803 129.522Z" fill="#F3661B"/>
<path d="M286.819 129.522H284.293C284.293 127.09 285.991 125.896 287.356 124.936C288.627 124.042 289.346 123.485 289.346 122.417C289.346 121.348 288.627 120.792 287.356 119.899C285.991 118.938 284.293 117.744 284.293 115.311C284.293 112.88 285.991 111.686 287.357 110.727C288.311 110.058 288.953 109.577 289.215 108.928C289.401 108.467 289.901 108.21 290.397 108.21C291.296 108.21 291.883 109.137 291.528 109.963C290.961 111.284 289.798 112.101 288.81 112.795C287.538 113.688 286.819 114.244 286.819 115.311C286.819 116.379 287.539 116.937 288.81 117.83C290.174 118.791 291.874 119.984 291.874 122.417C291.874 124.849 290.174 126.043 288.81 127.004C287.539 127.897 286.819 128.454 286.819 129.522Z" fill="#F3661B"/>
<path d="M52.3485 119.482C52.3485 111.864 46.1724 105.688 38.5531 105.688C30.9348 105.688 24.7588 111.864 24.7588 119.482C24.7588 127.101 30.9348 133.277 38.5531 133.277C46.1724 133.277 52.3485 127.101 52.3485 119.482Z" fill="#D1E9FF"/>
<path d="M50.7135 300.523C50.7135 292.905 44.5374 286.729 36.9191 286.729C29.3009 286.729 23.1238 292.905 23.1238 300.523C23.1238 308.142 29.3009 314.318 36.9191 314.318C44.5374 314.318 50.7135 308.142 50.7135 300.523Z" fill="#D1E9FF"/>
<path d="M384.7 167.066C384.7 159.446 378.524 153.27 370.905 153.27C363.287 153.27 357.111 159.446 357.111 167.066C357.111 174.683 363.287 180.859 370.905 180.859C378.524 180.859 384.7 174.683 384.7 167.066Z" fill="#D1E9FF"/>
</svg>
