<svg width="108" height="108" viewBox="0 0 108 108" fill="none" xmlns="http://www.w3.org/2000/svg">
<path d="M54.1039 23.3645C48.3866 23.3645 43.7353 28.018 43.7353 33.7381C43.7353 39.4582 48.3866 44.1118 54.1039 44.1118C59.8211 44.1118 64.4725 39.4582 64.4725 33.7381C64.4725 28.018 59.8211 23.3645 54.1039 23.3645ZM54.1039 45.897C47.4028 45.897 41.9509 40.4425 41.9509 33.7381C41.9509 27.0337 47.4028 21.5793 54.1039 21.5793C60.805 21.5793 66.2568 27.0337 66.2568 33.7381C66.2568 40.4425 60.805 45.897 54.1039 45.897Z" fill="#2B3B5E"/>
<path d="M54.1039 39.4818C48.3866 39.4818 43.7353 44.1354 43.7353 49.8555C43.7353 55.5756 48.3866 60.2292 54.1039 60.2292C59.8211 60.2292 64.4725 55.5756 64.4725 49.8555C64.4725 44.1354 59.8211 39.4818 54.1039 39.4818ZM54.1039 62.0142C47.4028 62.0142 41.9509 56.5599 41.9509 49.8555C41.9509 43.1511 47.4028 37.6966 54.1039 37.6966C60.805 37.6966 66.2568 43.1511 66.2568 49.8555C66.2568 56.5599 60.805 62.0142 54.1039 62.0142Z" fill="#2B3B5E"/>
<path d="M26.377 92.9655H27.7437V87.9833L26.4442 88.3644V87.0194L29.2113 86.1004V92.9655H30.5107V94.2208H26.377V92.9655Z" fill="#2B3B5E"/>
<path d="M37.367 89.5973V90.6704C37.367 91.0293 37.4211 91.3413 37.5295 91.6064C37.6377 91.8718 37.7816 92.0941 37.9608 92.2732C38.1401 92.4527 38.3417 92.5871 38.5658 92.6768C38.7898 92.7665 39.0212 92.8114 39.2603 92.8114C39.4993 92.8114 39.7346 92.7665 39.9662 92.6768C40.1976 92.5871 40.4031 92.4527 40.5824 92.2732C40.7615 92.0941 40.9053 91.8718 41.0136 91.6064C41.1218 91.3413 41.1761 91.0293 41.1761 90.6704V89.5973C41.1761 89.2463 41.12 88.9399 41.008 88.6782C40.8959 88.4168 40.7504 88.1983 40.5711 88.0226C40.3919 87.847 40.1884 87.7143 39.9604 87.6247C39.7326 87.535 39.4993 87.4901 39.2603 87.4901C39.0212 87.4901 38.7879 87.5332 38.5601 87.6191C38.3323 87.7051 38.1307 87.836 37.9553 88.0113C37.7796 88.187 37.6377 88.4076 37.5295 88.6726C37.4211 88.938 37.367 89.2463 37.367 89.5973ZM35.8994 90.6817V89.6086C35.8994 89.0257 35.9963 88.5139 36.1907 88.073C36.3848 87.6323 36.6389 87.2661 36.9527 86.9745C37.2662 86.6832 37.6247 86.4646 38.028 86.319C38.4313 86.1732 38.8457 86.1004 39.2715 86.1004C39.6898 86.1004 40.1007 86.1732 40.5038 86.319C40.9071 86.4646 41.2675 86.6832 41.585 86.9745C41.9023 87.2661 42.1579 87.6323 42.3523 88.073C42.5464 88.5139 42.6436 89.0257 42.6436 89.6086V90.6817C42.6436 91.2646 42.5464 91.7765 42.3523 92.2173C42.1579 92.6582 41.9023 93.0262 41.585 93.3212C41.2675 93.6166 40.9071 93.8368 40.5038 93.9826C40.1007 94.1283 39.6898 94.2011 39.2715 94.2011C38.8457 94.2011 38.4313 94.1283 38.028 93.9826C37.6247 93.8368 37.2662 93.6166 36.9527 93.3212C36.6389 93.0262 36.3848 92.6582 36.1907 92.2173C35.9963 91.7765 35.8994 91.2646 35.8994 90.6817Z" fill="#2B3B5E"/>
<path d="M49.802 89.5973V90.6704C49.802 91.0293 49.8562 91.3413 49.9645 91.6064C50.0728 91.8718 50.2166 92.0941 50.3958 92.2732C50.5752 92.4527 50.7767 92.5871 51.0008 92.6768C51.2249 92.7665 51.4563 92.8114 51.6954 92.8114C51.9344 92.8114 52.1696 92.7665 52.4013 92.6768C52.6327 92.5871 52.8381 92.4527 53.0174 92.2732C53.1965 92.0941 53.3404 91.8718 53.4486 91.6064C53.5569 91.3413 53.6111 91.0293 53.6111 90.6704V89.5973C53.6111 89.2463 53.5551 88.9399 53.4431 88.6782C53.331 88.4168 53.1855 88.1983 53.0061 88.0226C52.8269 87.847 52.6234 87.7143 52.3955 87.6247C52.1677 87.535 51.9344 87.4901 51.6954 87.4901C51.4563 87.4901 51.223 87.5332 50.9952 87.6191C50.7674 87.7051 50.5658 87.836 50.3903 88.0113C50.2147 88.187 50.0728 88.4076 49.9645 88.6726C49.8562 88.938 49.802 89.2463 49.802 89.5973ZM48.3345 90.6817V89.6086C48.3345 89.0257 48.4314 88.5139 48.6258 88.073C48.8199 87.6323 49.0739 87.2661 49.3877 86.9745C49.7013 86.6832 50.0598 86.4646 50.4631 86.319C50.8663 86.1732 51.2808 86.1004 51.7066 86.1004C52.1249 86.1004 52.5356 86.1732 52.9389 86.319C53.3422 86.4646 53.7025 86.6832 54.02 86.9745C54.3373 87.2661 54.593 87.6323 54.7874 88.073C54.9815 88.5139 55.0787 89.0257 55.0787 89.6086V90.6817C55.0787 91.2646 54.9815 91.7765 54.7874 92.2173C54.593 92.6582 54.3373 93.0262 54.02 93.3212C53.7025 93.6166 53.3422 93.8368 52.9389 93.9826C52.5356 94.1283 52.1249 94.2011 51.7066 94.2011C51.2808 94.2011 50.8663 94.1283 50.4631 93.9826C50.0598 93.8368 49.7013 93.6166 49.3877 93.3212C49.0739 93.0262 48.8199 92.6582 48.6258 92.2173C48.4314 91.7765 48.3345 91.2646 48.3345 90.6817Z" fill="#2B3B5E"/>
<path d="M62.2371 89.5973V90.6705C62.2371 91.0293 62.2914 91.3413 62.3996 91.6064C62.5078 91.8719 62.6518 92.0941 62.8309 92.2733C63.0104 92.4527 63.2119 92.5871 63.4359 92.6769C63.6599 92.7665 63.8915 92.8114 64.1305 92.8114C64.3694 92.8114 64.6047 92.7665 64.8365 92.6769C65.0677 92.5871 65.2733 92.4527 65.4525 92.2733C65.6316 92.0941 65.7756 91.8719 65.8838 91.6064C65.992 91.3413 66.0463 91.0293 66.0463 90.6705V89.5973C66.0463 89.2463 65.9901 88.9399 65.8783 88.6782C65.766 88.4169 65.6205 88.1983 65.4413 88.0226C65.262 87.8471 65.0585 87.7144 64.8306 87.6247C64.6028 87.5351 64.3694 87.4902 64.1305 87.4902C63.8915 87.4902 63.6581 87.5333 63.4302 87.6192C63.2024 87.7051 63.0008 87.836 62.8254 88.0113C62.6499 88.187 62.5078 88.4076 62.3996 88.6727C62.2914 88.938 62.2371 89.2463 62.2371 89.5973ZM60.7695 90.6818V89.6086C60.7695 89.0257 60.8667 88.514 61.0608 88.0731C61.2551 87.6323 61.5092 87.2661 61.8228 86.9746C62.1363 86.6832 62.4949 86.4646 62.8981 86.319C63.3014 86.1733 63.7161 86.1005 64.1419 86.1005C64.56 86.1005 64.9709 86.1733 65.3742 86.319C65.7775 86.4646 66.1376 86.6832 66.4551 86.9746C66.7724 87.2661 67.0283 87.6323 67.2224 88.0731C67.4167 88.514 67.5139 89.0257 67.5139 89.6086V90.6818C67.5139 91.2647 67.4167 91.7766 67.2224 92.2173C67.0283 92.6582 66.7724 93.0262 66.4551 93.3213C66.1376 93.6167 65.7775 93.8369 65.3742 93.9826C64.9709 94.1283 64.56 94.2011 64.1419 94.2011C63.7161 94.2011 63.3014 94.1283 62.8981 93.9826C62.4949 93.8369 62.1363 93.6167 61.8228 93.3213C61.5092 93.0262 61.2551 92.6582 61.0608 92.2173C60.8667 91.7766 60.7695 91.2647 60.7695 90.6818Z" fill="#2B3B5E"/>
<path d="M80.3522 88.2524L77.7978 91.6597H77.5067L75.0086 88.2411V94.2209H73.5295V86.1004H75.2324L77.686 89.474L80.1394 86.1004H81.8308V94.2209H80.3522V88.2524Z" fill="#2B3B5E"/>
<path d="M44.5174 72.7752C44.2184 72.7752 43.9263 72.6248 43.7575 72.3515C42.5757 70.4372 41.9509 68.2304 41.9509 65.97C41.9509 59.2655 47.4028 53.8111 54.1039 53.8111C60.8051 53.8111 66.2569 59.2655 66.2569 65.97C66.2569 68.1372 65.6797 70.265 64.5877 72.1236C64.338 72.5486 63.7915 72.6907 63.3665 72.4408C62.9418 72.1909 62.7999 71.6439 63.0495 71.2189C63.9805 69.6344 64.4726 67.8193 64.4726 65.97C64.4726 60.2499 59.8213 55.5963 54.1039 55.5963C48.3866 55.5963 43.7353 60.2499 43.7353 65.97C43.7353 67.8988 44.268 69.7811 45.2756 71.4134C45.5346 71.8328 45.4045 72.3828 44.9855 72.6419C44.8393 72.7321 44.6774 72.7752 44.5174 72.7752Z" fill="#2B3B5E"/>
<path d="M48.1758 75.6619L50.1987 78.0523H58.0144L48.1758 66.4264L38.3372 78.0523H46.1529L48.1758 75.6619Z" fill="#2B3B5E"/>
<path d="M60.0005 75.6619L62.0234 78.0523H69.8391L60.0005 66.4264L50.1619 78.0523H57.9776L60.0005 75.6619Z" fill="#2B3B5E"/>
<path d="M53.5946 13.5024L52.2608 15.6327L50.3435 18.6512L52.2384 18.6338L53.2117 17.0998V27.4901V28.7277V29.6203H54.9959V28.7277V27.4901V15.6327V14.3951V13.5024H53.5946Z" fill="#2B3B5E"/>
</svg>
