<svg width="60" height="60" viewBox="0 0 60 60" fill="none" xmlns="http://www.w3.org/2000/svg">
<path d="M30.0578 12.9805C26.8815 12.9805 24.2974 15.5658 24.2974 18.7436C24.2974 21.9214 26.8815 24.5068 30.0578 24.5068C33.234 24.5068 35.8181 21.9214 35.8181 18.7436C35.8181 15.5658 33.234 12.9805 30.0578 12.9805ZM30.0578 25.4985C26.335 25.4985 23.3062 22.4683 23.3062 18.7436C23.3062 15.019 26.335 11.9887 30.0578 11.9887C33.7806 11.9887 36.8094 15.019 36.8094 18.7436C36.8094 22.4683 33.7806 25.4985 30.0578 25.4985Z" fill="white"/>
<path d="M30.0578 21.9341C26.8815 21.9341 24.2974 24.5195 24.2974 27.6973C24.2974 30.8751 26.8815 33.4604 30.0578 33.4604C33.234 33.4604 35.8181 30.8751 35.8181 27.6973C35.8181 24.5195 33.234 21.9341 30.0578 21.9341ZM30.0578 34.4521C26.335 34.4521 23.3062 31.422 23.3062 27.6973C23.3062 23.9726 26.335 20.9424 30.0578 20.9424C33.7806 20.9424 36.8094 23.9726 36.8094 27.6973C36.8094 31.422 33.7806 34.4521 30.0578 34.4521Z" fill="white"/>
<path d="M14.6538 51.6473H15.4131V48.8794L14.6912 49.0912V48.3439L16.2285 47.8334V51.6473H16.9504V52.3447H14.6538V51.6473Z" fill="white"/>
<path d="M20.7594 49.7763V50.3725C20.7594 50.5719 20.7895 50.7452 20.8497 50.8925C20.9098 51.04 20.9897 51.1634 21.0893 51.263C21.1889 51.3626 21.3009 51.4373 21.4254 51.4872C21.5499 51.537 21.6784 51.5619 21.8113 51.5619C21.944 51.5619 22.0747 51.537 22.2034 51.4872C22.332 51.4373 22.4461 51.3626 22.5457 51.263C22.6452 51.1634 22.7251 51.04 22.7853 50.8925C22.8454 50.7452 22.8756 50.5719 22.8756 50.3725V49.7763C22.8756 49.5813 22.8444 49.4111 22.7822 49.2657C22.7199 49.1205 22.6391 48.9991 22.5395 48.9015C22.4399 48.804 22.3268 48.7302 22.2002 48.6804C22.0737 48.6306 21.944 48.6057 21.8113 48.6057C21.6784 48.6057 21.5488 48.6296 21.4223 48.6774C21.2957 48.7251 21.1837 48.7978 21.0862 48.8952C20.9887 48.9928 20.9098 49.1154 20.8497 49.2626C20.7895 49.41 20.7594 49.5813 20.7594 49.7763ZM19.9441 50.3788V49.7826C19.9441 49.4588 19.9979 49.1745 20.1059 48.9295C20.2138 48.6846 20.3549 48.4812 20.5292 48.3192C20.7034 48.1574 20.9026 48.0359 21.1266 47.955C21.3507 47.8741 21.5809 47.8336 21.8175 47.8336C22.0499 47.8336 22.2781 47.8741 22.5021 47.955C22.7261 48.0359 22.9263 48.1574 23.1027 48.3192C23.279 48.4812 23.4211 48.6846 23.529 48.9295C23.6369 49.1745 23.6909 49.4588 23.6909 49.7826V50.3788C23.6909 50.7026 23.6369 50.987 23.529 51.2319C23.4211 51.4768 23.279 51.6813 23.1027 51.8452C22.9263 52.0093 22.7261 52.1316 22.5021 52.2126C22.2781 52.2935 22.0499 52.334 21.8175 52.334C21.5809 52.334 21.3507 52.2935 21.1266 52.2126C20.9026 52.1316 20.7034 52.0093 20.5292 51.8452C20.3549 51.6813 20.2138 51.4768 20.1059 51.2319C19.9979 50.987 19.9441 50.7026 19.9441 50.3788Z" fill="white"/>
<path d="M27.6676 49.7763V50.3725C27.6676 50.5719 27.6977 50.7452 27.7579 50.8925C27.818 51.04 27.8979 51.1634 27.9975 51.263C28.0971 51.3626 28.2091 51.4373 28.3336 51.4872C28.4581 51.537 28.5866 51.5619 28.7195 51.5619C28.8522 51.5619 28.9829 51.537 29.1116 51.4872C29.2402 51.4373 29.3543 51.3626 29.4539 51.263C29.5534 51.1634 29.6334 51.04 29.6935 50.8925C29.7536 50.7452 29.7838 50.5719 29.7838 50.3725V49.7763C29.7838 49.5813 29.7526 49.4111 29.6904 49.2657C29.6281 49.1205 29.5473 48.9991 29.4477 48.9015C29.3481 48.804 29.235 48.7302 29.1084 48.6804C28.9819 48.6306 28.8522 48.6057 28.7195 48.6057C28.5866 48.6057 28.457 48.6296 28.3305 48.6774C28.2039 48.7251 28.0919 48.7978 27.9944 48.8952C27.8969 48.9928 27.818 49.1154 27.7579 49.2626C27.6977 49.41 27.6676 49.5813 27.6676 49.7763ZM26.8523 50.3788V49.7826C26.8523 49.4588 26.9061 49.1745 27.0141 48.9295C27.122 48.6846 27.2631 48.4812 27.4374 48.3192C27.6116 48.1574 27.8108 48.0359 28.0349 47.955C28.2589 47.8741 28.4891 47.8336 28.7257 47.8336C28.9581 47.8336 29.1863 47.8741 29.4103 47.955C29.6344 48.0359 29.8345 48.1574 30.0109 48.3192C30.1872 48.4812 30.3293 48.6846 30.4372 48.9295C30.5451 49.1745 30.5991 49.4588 30.5991 49.7826V50.3788C30.5991 50.7026 30.5451 50.987 30.4372 51.2319C30.3293 51.4768 30.1872 51.6813 30.0109 51.8452C29.8345 52.0093 29.6344 52.1316 29.4103 52.2126C29.1863 52.2935 28.9581 52.334 28.7257 52.334C28.4891 52.334 28.2589 52.2935 28.0349 52.2126C27.8108 52.1316 27.6116 52.0093 27.4374 51.8452C27.2631 51.6813 27.122 51.4768 27.0141 51.2319C26.9061 50.987 26.8523 50.7026 26.8523 50.3788Z" fill="white"/>
<path d="M34.5761 49.7763V50.3725C34.5761 50.5719 34.6062 50.7452 34.6663 50.8925C34.7265 51.04 34.8065 51.1634 34.9059 51.263C35.0056 51.3626 35.1176 51.4373 35.242 51.4872C35.3665 51.537 35.4952 51.5619 35.6279 51.5619C35.7607 51.5619 35.8914 51.537 36.0202 51.4872C36.1486 51.4373 36.2628 51.3626 36.3624 51.263C36.4619 51.1634 36.5419 51.04 36.602 50.8925C36.6621 50.7452 36.6923 50.5719 36.6923 50.3725V49.7763C36.6923 49.5813 36.6611 49.4111 36.5989 49.2657C36.5366 49.1205 36.4557 48.9991 36.3562 48.9015C36.2566 48.804 36.1435 48.7302 36.0169 48.6804C35.8903 48.6306 35.7607 48.6057 35.6279 48.6057C35.4952 48.6057 35.3655 48.6296 35.2389 48.6774C35.1123 48.7251 35.0004 48.7978 34.9029 48.8952C34.8054 48.9928 34.7265 49.1154 34.6663 49.2626C34.6062 49.41 34.5761 49.5813 34.5761 49.7763ZM33.7607 50.3788V49.7826C33.7607 49.4588 33.8147 49.1745 33.9226 48.9295C34.0305 48.6846 34.1717 48.4812 34.3459 48.3192C34.5201 48.1574 34.7193 48.0359 34.9433 47.955C35.1673 47.8741 35.3977 47.8336 35.6343 47.8336C35.8665 47.8336 36.0949 47.8741 36.3189 47.955C36.5429 48.0359 36.743 48.1574 36.9194 48.3192C37.0957 48.4812 37.2378 48.6846 37.3457 48.9295C37.4536 49.1745 37.5076 49.4588 37.5076 49.7826V50.3788C37.5076 50.7026 37.4536 50.987 37.3457 51.2319C37.2378 51.4768 37.0957 51.6813 36.9194 51.8452C36.743 52.0093 36.5429 52.1316 36.3189 52.2126C36.0949 52.2935 35.8665 52.334 35.6343 52.334C35.3977 52.334 35.1673 52.2935 34.9433 52.2126C34.7193 52.1316 34.5201 52.0093 34.3459 51.8452C34.1717 51.6813 34.0305 51.4768 33.9226 51.2319C33.8147 50.987 33.7607 50.7026 33.7607 50.3788Z" fill="white"/>
<path d="M44.64 49.0289L43.2209 50.9218H43.0592L41.6713 49.0226V52.3447H40.8496V47.8333H41.7956L43.1587 49.7075L44.5218 47.8333H45.4614V52.3447H44.64V49.0289Z" fill="white"/>
<path d="M24.732 40.4307C24.5658 40.4307 24.4036 40.3471 24.3098 40.1953C23.6532 39.1318 23.3062 37.9058 23.3062 36.65C23.3062 32.9253 26.335 29.8951 30.0578 29.8951C33.7807 29.8951 36.8095 32.9253 36.8095 36.65C36.8095 37.854 36.4888 39.0361 35.8821 40.0687C35.7434 40.3048 35.4398 40.3837 35.2037 40.2449C34.9677 40.1061 34.8889 39.8022 35.0276 39.5661C35.5448 38.6858 35.8182 37.6774 35.8182 36.65C35.8182 33.4722 33.2341 30.8868 30.0578 30.8868C26.8815 30.8868 24.2974 33.4722 24.2974 36.65C24.2974 37.7216 24.5934 38.7673 25.1532 39.6741C25.2971 39.9071 25.2248 40.2127 24.992 40.3566C24.9108 40.4067 24.8209 40.4307 24.732 40.4307Z" fill="white"/>
<path d="M26.7643 42.0343L27.8881 43.3623H32.2302L26.7643 36.9035L21.2983 43.3623H25.6404L26.7643 42.0343Z" fill="white"/>
<path d="M33.3336 42.0343L34.4574 43.3623H38.7995L33.3336 36.9035L27.8677 43.3623H32.2097L33.3336 42.0343Z" fill="white"/>
<path d="M29.7747 7.50116L29.0336 8.68465L27.9685 10.3616L29.0212 10.3519L29.5619 9.49972V15.2721V15.9597V16.4556H30.5532V15.9597V15.2721V8.68465V7.99712V7.50116H29.7747Z" fill="white"/>
</svg>
