<svg width="24" height="24" viewBox="0 0 24 24" fill="none" xmlns="http://www.w3.org/2000/svg">
<path d="M21.5 18H2.5C2.10218 18 1.72064 18.158 1.43934 18.4393C1.15804 18.7206 1 19.1022 1 19.5C1 19.8978 1.15804 20.2794 1.43934 20.5607C1.72064 20.842 2.10218 21 2.5 21H21.5C21.8978 21 22.2794 20.842 22.5607 20.5607C22.842 20.2794 23 19.8978 23 19.5C23 19.1022 22.842 18.7206 22.5607 18.4393C22.2794 18.158 21.8978 18 21.5 18Z" fill="#000"/>
<path d="M12 7C9.61305 7 7.32387 7.9099 5.63604 9.52953C3.94821 11.1492 3 13.3459 3 15.6364V16.5455C3 16.666 3.04991 16.7816 3.13874 16.8669C3.22757 16.9521 3.34806 17 3.47368 17H20.5263C20.6519 17 20.7724 16.9521 20.8613 16.8669C20.9501 16.7816 21 16.666 21 16.5455V15.6364C21 13.3459 20.0518 11.1492 18.364 9.52953C16.6761 7.9099 14.3869 7 12 7Z" fill="#000"/>
<path d="M13.5 3H10.5C10.1022 3 9.72064 3.15804 9.43934 3.43934C9.15804 3.72064 9 4.10218 9 4.5C9 4.89782 9.15804 5.27936 9.43934 5.56066C9.72064 5.84196 10.1022 6 10.5 6V7C10.5 7.13261 10.5527 7.25979 10.6464 7.35355C10.7402 7.44732 10.8674 7.5 11 7.5H13C13.1326 7.5 13.2598 7.44732 13.3536 7.35355C13.4473 7.25979 13.5 7.13261 13.5 7V6C13.8978 6 14.2794 5.84196 14.5607 5.56066C14.842 5.27936 15 4.89782 15 4.5C15 4.10218 14.842 3.72064 14.5607 3.43934C14.2794 3.15804 13.8978 3 13.5 3Z" fill="#000"/>
</svg>
