<svg width="16" height="16" viewBox="0 0 16 16" fill="none" xmlns="http://www.w3.org/2000/svg">
<path d="M10.9933 3.28809H4.48784C4.23934 3.28809 4.03784 3.48959 4.03784 3.73809C4.03784 3.98659 4.23934 4.18809 4.48784 4.18809H10.9938C11.2423 4.18809 11.4438 3.98659 11.4438 3.73809C11.4438 3.48959 11.2418 3.28809 10.9933 3.28809Z" fill="#F2522E"/>
<path d="M11.4433 6.2752C11.4433 6.0267 11.2418 5.8252 10.9933 5.8252H4.48784C4.23934 5.8252 4.03784 6.0267 4.03784 6.2752C4.03784 6.5237 4.23934 6.7252 4.48784 6.7252H10.9938C11.2418 6.7252 11.4433 6.5237 11.4433 6.2752Z" fill="#F2522E"/>
<path d="M4.48784 8.36279C4.23934 8.36279 4.03784 8.56429 4.03784 8.81279C4.03784 9.06129 4.23934 9.26279 4.48784 9.26279H7.76484C8.01334 9.26279 8.21484 9.06129 8.21484 8.81279C8.21484 8.56429 8.01334 8.36279 7.76484 8.36279H4.48784Z" fill="#F2522E"/>
<path d="M5.65638 14.5498H2.87188C2.48788 14.5498 2.17588 14.2373 2.17588 13.8538V2.1458C2.17588 1.7618 2.48838 1.4498 2.87188 1.4498H12.6099C12.9934 1.4498 13.3059 1.7623 13.3059 2.1458V6.4183C13.3059 6.6668 13.5074 6.8683 13.7559 6.8683C14.0044 6.8683 14.2059 6.6668 14.2059 6.4183V2.1458C14.2059 1.2658 13.4899 0.549805 12.6104 0.549805H2.87188C1.99188 0.549805 1.27588 1.2658 1.27588 2.1458V13.8538C1.27588 14.7338 1.99188 15.4498 2.87188 15.4498H5.65638C5.90488 15.4498 6.10638 15.2483 6.10638 14.9998C6.10638 14.7513 5.90488 14.5498 5.65638 14.5498Z" fill="#F2522E"/>
<path d="M14.2334 8.45692C13.5804 7.80342 12.5169 7.80342 11.8644 8.45692L7.72693 12.5944C7.59593 12.7254 7.50993 12.8914 7.47893 13.0739L7.25293 14.4154C7.20493 14.6979 7.29743 14.9874 7.49993 15.1899C7.66693 15.3574 7.89443 15.4499 8.12743 15.4499C8.17643 15.4499 8.22543 15.4459 8.27443 15.4374L9.61493 15.2109C9.79793 15.1804 9.96443 15.0949 10.0954 14.9634L14.2329 10.8259C14.8864 10.1729 14.8864 9.10992 14.2334 8.45692ZM9.46643 14.3234L8.14043 14.5649L8.36293 13.2304L11.3404 10.2529L12.4374 11.3499L9.46643 14.3234ZM13.5969 10.1894L13.0734 10.7134L11.9764 9.61642L12.5004 9.09242C12.6514 8.94142 12.8504 8.86592 13.0489 8.86592C13.2474 8.86592 13.4459 8.94142 13.5974 9.09242C13.8994 9.39542 13.8994 9.88692 13.5969 10.1894Z" fill="#F2522E"/>
</svg>
