<svg width="24" height="24" viewBox="0 0 24 24" fill="none" xmlns="http://www.w3.org/2000/svg">
<path fill-rule="evenodd" clip-rule="evenodd" d="M15.9535 7.34884C15.9535 7.73395 15.6409 8.04651 15.2558 8.04651C14.8707 8.04651 14.5581 7.73395 14.5581 7.34884V5.95349C14.5581 4.54047 13.413 3.39535 12 3.39535C10.587 3.39535 9.44186 4.54047 9.44186 5.95349V7.34884C9.44186 7.73395 9.1293 8.04651 8.74418 8.04651C8.35907 8.04651 8.04651 7.73395 8.04651 7.34884V5.95349C8.04651 3.77023 9.81674 2 12 2C14.1833 2 15.9535 3.77023 15.9535 5.95349V7.34884Z" fill="#000"/>
<path fill-rule="evenodd" clip-rule="evenodd" d="M18.8298 8.60486L19.574 19.7676C19.6121 20.3463 19.4093 20.9137 19.014 21.3369C18.6177 21.7602 18.0642 22.0002 17.4856 22.0002H6.51443C5.93583 22.0002 5.38234 21.7602 4.98606 21.3369C4.59071 20.9137 4.38792 20.3463 4.42606 19.7676L5.17025 8.60486C5.24374 7.50532 6.15722 6.65137 7.25862 6.65137H16.7414C17.8428 6.65137 18.7563 7.50532 18.8298 8.60486ZM14.3126 10.7704C13.9014 11.6346 13.0205 12.2328 12 12.2328C10.9795 12.2328 10.0986 11.6346 9.68746 10.7704C9.52281 10.4225 9.10606 10.2746 8.75815 10.4402C8.41025 10.6049 8.26234 11.0216 8.42699 11.3695C9.06141 12.7053 10.4233 13.6281 12 13.6281C13.5768 13.6281 14.9386 12.7053 15.573 11.3695C15.7377 11.0216 15.5898 10.6049 15.2419 10.4402C14.894 10.2746 14.4772 10.4225 14.3126 10.7704Z" fill="#000"/>
</svg>
