<svg width="16" height="17" viewBox="0 0 16 17" fill="none" xmlns="http://www.w3.org/2000/svg">
<path d="M13.12 5.51294H4.79999V3.37961C4.79999 3.26645 4.84494 3.15793 4.92496 3.07791C5.00498 2.9979 5.1135 2.95294 5.22666 2.95294H10.56C10.6732 2.95294 10.7817 2.9979 10.8617 3.07791C10.9417 3.15793 10.9867 3.26645 10.9867 3.37961V4.65961C10.9867 4.77277 11.0316 4.88129 11.1116 4.96131C11.1916 5.04132 11.3002 5.08628 11.4133 5.08628C11.5265 5.08628 11.635 5.04132 11.715 4.96131C11.795 4.88129 11.84 4.77277 11.84 4.65961V3.37961C11.84 3.04013 11.7051 2.71456 11.4651 2.47451C11.225 2.23447 10.8995 2.09961 10.56 2.09961H5.22666C4.88718 2.09961 4.56161 2.23447 4.32156 2.47451C4.08152 2.71456 3.94666 3.04013 3.94666 3.37961V5.51294H2.87999C2.54051 5.51294 2.21494 5.6478 1.97489 5.88785C1.73485 6.12789 1.59999 6.45347 1.59999 6.79294V10.6329C1.59999 10.9724 1.73485 11.298 1.97489 11.538C2.21494 11.7781 2.54051 11.9129 2.87999 11.9129H3.94666V13.4063C3.94666 13.7458 4.08152 14.0713 4.32156 14.3114C4.56161 14.5514 4.88718 14.6863 5.22666 14.6863H10.7733C11.1128 14.6863 11.4384 14.5514 11.6784 14.3114C11.9185 14.0713 12.0533 13.7458 12.0533 13.4063V11.9129H13.12C13.4595 11.9129 13.785 11.7781 14.0251 11.538C14.2651 11.298 14.4 10.9724 14.4 10.6329V6.79294C14.4 6.45347 14.2651 6.12789 14.0251 5.88785C13.785 5.6478 13.4595 5.51294 13.12 5.51294ZM12.2667 8.49961C12.0979 8.49961 11.9329 8.44956 11.7926 8.3558C11.6522 8.26203 11.5429 8.12876 11.4783 7.97283C11.4137 7.81691 11.3968 7.64533 11.4297 7.4798C11.4627 7.31427 11.5439 7.16222 11.6633 7.04288C11.7826 6.92354 11.9347 6.84227 12.1002 6.80934C12.2657 6.77641 12.4373 6.79331 12.5932 6.8579C12.7491 6.92249 12.8824 7.03186 12.9762 7.17219C13.0699 7.31252 13.12 7.4775 13.12 7.64628C13.12 7.8726 13.0301 8.08964 12.8701 8.24968C12.71 8.40971 12.493 8.49961 12.2667 8.49961ZM11.2 13.4063C11.2 13.5194 11.155 13.628 11.075 13.708C10.995 13.788 10.8865 13.8329 10.7733 13.8329H5.22666C5.1135 13.8329 5.00498 13.788 4.92496 13.708C4.84494 13.628 4.79999 13.5194 4.79999 13.4063V11.0596C4.79999 10.9465 4.84494 10.8379 4.92496 10.7579C5.00498 10.6779 5.1135 10.6329 5.22666 10.6329H10.7733C10.8865 10.6329 10.995 10.6779 11.075 10.7579C11.155 10.8379 11.2 10.9465 11.2 11.0596V13.4063Z" fill="black"/>
</svg>
