<svg width="16" height="16" viewBox="0 0 16 16" fill="none" xmlns="http://www.w3.org/2000/svg">
<path d="M2.49937 3.49854C1.85971 3.49854 1.33057 4.02768 1.33057 4.66733V6.33072C1.33057 6.7936 1.68354 7.10274 2.04415 7.1944C2.399 7.28461 2.66423 7.60636 2.66423 7.99903C2.66423 8.3917 2.3987 8.71136 2.04415 8.80119C1.68355 8.89256 1.33057 9.20201 1.33057 9.66487V11.3307C1.33057 11.9704 1.85968 12.4995 2.49937 12.4995H13.4984C14.138 12.4995 14.6672 11.9704 14.6672 11.3307V9.66487C14.6672 9.202 14.3142 8.89257 13.9536 8.80119C13.5991 8.71137 13.3335 8.39169 13.3335 7.99903C13.3335 7.60635 13.5988 7.28458 13.9536 7.1944C14.3142 7.10276 14.6672 6.79358 14.6672 6.33072V4.66733C14.6672 4.02767 14.1381 3.49854 13.4984 3.49854H2.49937ZM2.49937 4.49755H13.4984C13.5976 4.49755 13.6657 4.56805 13.6657 4.66733V6.25198C12.8988 6.47057 12.3345 7.16906 12.3345 7.99903C12.3345 8.82896 12.8986 9.52553 13.6657 9.74361V11.3307C13.6657 11.4299 13.5976 11.5005 13.4984 11.5005H2.49937C2.40018 11.5005 2.32958 11.43 2.32958 11.3307V9.74607C3.09845 9.52914 3.66324 8.83021 3.66324 7.99903C3.66324 7.16785 3.09815 6.467 2.32958 6.24952V4.66733C2.32958 4.56812 2.40015 4.49755 2.49937 4.49755Z" fill="#F2522E"/>
<path d="M5.68579 3.49854C5.55335 3.49867 5.42637 3.55133 5.33273 3.64498C5.23908 3.73863 5.18641 3.86561 5.18628 3.99804V4.66487C5.18641 4.79731 5.23908 4.92429 5.33273 5.01794C5.42637 5.11158 5.55335 5.16425 5.68579 5.16438C5.81822 5.16425 5.9452 5.11158 6.03885 5.01794C6.1325 4.92429 6.18516 4.79731 6.1853 4.66487V3.99804C6.18516 3.86561 6.1325 3.73863 6.03885 3.64498C5.9452 3.55133 5.81822 3.49867 5.68579 3.49854Z" fill="#F2522E"/>
<path d="M5.68579 5.94189C5.55335 5.94202 5.42638 5.99469 5.33273 6.08834C5.23908 6.18199 5.18641 6.30896 5.18628 6.4414V7.10823C5.18602 7.17402 5.19875 7.23921 5.22373 7.30007C5.24871 7.36092 5.28545 7.41625 5.33186 7.46288C5.37826 7.50951 5.43341 7.54653 5.49415 7.57181C5.55488 7.59709 5.62001 7.61014 5.68579 7.6102C5.75158 7.61014 5.8167 7.59709 5.87744 7.57181C5.93817 7.54653 5.99332 7.50951 6.03972 7.46288C6.08613 7.41625 6.12287 7.36092 6.14785 7.30007C6.17283 7.23921 6.18556 7.17402 6.1853 7.10823V6.4414C6.18517 6.30896 6.1325 6.18199 6.03885 6.08834C5.94521 5.99469 5.81823 5.94202 5.68579 5.94189Z" fill="#F2522E"/>
<path d="M5.68579 10.8311C5.55335 10.8312 5.42637 10.8839 5.33273 10.9775C5.23908 11.0711 5.18641 11.1981 5.18628 11.3306V11.9974C5.18641 12.1298 5.23907 12.2568 5.33272 12.3505C5.42637 12.4441 5.55335 12.4968 5.68579 12.4969C5.81823 12.4968 5.9452 12.4441 6.03885 12.3505C6.1325 12.2568 6.18517 12.1298 6.1853 11.9974V11.3306C6.18516 11.1981 6.1325 11.0711 6.03885 10.9775C5.9452 10.8839 5.81822 10.8312 5.68579 10.8311Z" fill="#F2522E"/>
<path d="M5.68579 8.3877C5.55335 8.38783 5.42637 8.44049 5.33273 8.53414C5.23908 8.62779 5.18641 8.75477 5.18628 8.8872V9.55403C5.18641 9.68647 5.23908 9.81345 5.33273 9.9071C5.42637 10.0007 5.55335 10.0534 5.68579 10.0535C5.81822 10.0534 5.9452 10.0007 6.03885 9.9071C6.1325 9.81345 6.18516 9.68647 6.1853 9.55403V8.8872C6.18516 8.75477 6.1325 8.62779 6.03885 8.53414C5.9452 8.44049 5.81822 8.38783 5.68579 8.3877Z" fill="#F2522E"/>
</svg>
